<?xml version="1.0" encoding="UTF-8" standalone="no"?>
<svg
   version="1.0"
   width="1305.649pt"
   height="1309.0482pt"
   viewBox="0 0 1305.649 1309.0482"
   preserveAspectRatio="xMidYMid"
   id="svg2"
   sodipodi:docname="155756.svg"
   inkscape:version="1.3.2 (091e20ef0f, 2023-11-25, custom)"
   inkscape:export-filename="../Documents/Personal/Communal/communal_web/src/assets/icons/155756.svg"
   inkscape:export-xdpi="96"
   inkscape:export-ydpi="96"
   xmlns:inkscape="http://www.inkscape.org/namespaces/inkscape"
   xmlns:sodipodi="http://sodipodi.sourceforge.net/DTD/sodipodi-0.dtd"
   xmlns:xlink="http://www.w3.org/1999/xlink"
   xmlns="http://www.w3.org/2000/svg"
   xmlns:svg="http://www.w3.org/2000/svg">
  <defs
     id="defs2">
    <linearGradient
       id="swatch2"
       inkscape:swatch="solid">
      <stop
         style="stop-color:#000000;stop-opacity:1;"
         offset="0"
         id="stop2" />
    </linearGradient>
    <linearGradient
       inkscape:collect="always"
       xlink:href="#swatch2"
       id="linearGradient2"
       x1="-257.07578"
       y1="6401.0918"
       x2="13058.176"
       y2="6401.0918"
       gradientUnits="userSpaceOnUse" />
    <linearGradient
       inkscape:collect="always"
       xlink:href="#swatch2"
       id="linearGradient3"
       gradientUnits="userSpaceOnUse"
       x1="-257.07578"
       y1="6401.0918"
       x2="13058.176"
       y2="6401.0918" />
    <linearGradient
       inkscape:collect="always"
       xlink:href="#swatch2"
       id="linearGradient4"
       gradientUnits="userSpaceOnUse"
       x1="-257.07578"
       y1="6401.0918"
       x2="13058.176"
       y2="6401.0918" />
  </defs>
  <sodipodi:namedview
     id="namedview2"
     pagecolor="#ffffff"
     bordercolor="#eeeeee"
     borderopacity="1"
     inkscape:showpageshadow="0"
     inkscape:pageopacity="0"
     inkscape:pagecheckerboard="0"
     inkscape:deskcolor="#d1d1d1"
     inkscape:document-units="pt"
     inkscape:zoom="0.34057135"
     inkscape:cx="776.63608"
     inkscape:cy="1042.366"
     inkscape:window-width="1908"
     inkscape:window-height="1026"
     inkscape:window-x="4"
     inkscape:window-y="4"
     inkscape:window-maximized="1"
     inkscape:current-layer="svg2" />
  <metadata
     id="metadata1">
Created by potrace 1.15, written by Peter Selinger 2001-2017
</metadata>
  <g
     transform="matrix(0.1,0,0,-0.1,15.150603,1294.5664)"
     fill="#000000"
     stroke="none"
     id="g2"
     style="fill:none;stroke:url(#linearGradient2);stroke-width:300;stroke-linecap:round;stroke-linejoin:bevel;stroke-miterlimit:0;stroke-dasharray:75, 75;stroke-dashoffset:0;stroke-opacity:1;paint-order:markers stroke fill">
    <path
       d="m 6585,12790 c -712,-52 -1344,-219 -2025,-538 -184,-86 -718,-388 -706,-399 2,-2 79,12 172,31 331,68 738,128 1069,157 193,17 686,14 890,-5 453,-43 829,-121 1235,-256 1478,-491 2647,-1600 3148,-2985 96,-267 177,-608 219,-920 26,-199 26,-738 0,-940 -85,-657 -312,-1260 -687,-1820 -96,-142 -199,-280 -210,-280 -11,0 -2190,2163 -2190,2174 0,6 725,833 1281,1462 l 58,65 -1159,453 c -637,250 -1165,451 -1172,448 -24,-11 -3443,-3302 -3443,-3315 0,-12 1750,-1722 1763,-1722 4,0 256,239 560,531 l 554,531 51,-50 c 29,-27 1212,-1188 2630,-2581 1418,-1392 2581,-2531 2585,-2530 4,0 342,342 752,760 l 746,759 -610,609 -609,609 95,148 c 377,590 649,1176 849,1834 153,500 248,988 306,1570 24,238 24,722 0,940 -88,800 -346,1558 -775,2274 -471,787 -1130,1481 -1897,1999 -812,548 -1702,875 -2645,972 -182,19 -663,27 -835,15 z"
       id="path1"
       style="fill:none;stroke:url(#linearGradient3);stroke-width:300;stroke-linecap:round;stroke-linejoin:bevel;stroke-miterlimit:0;stroke-dasharray:75, 75;stroke-dashoffset:0;stroke-opacity:1;paint-order:markers stroke fill" />
    <path
       d="m 1592,10328 c -313,-351 -563,-699 -789,-1097 -53,-93 -62,-116 -51,-126 7,-7 153,-125 325,-264 l 312,-251 -55,-118 c -115,-243 -223,-523 -293,-757 l -33,-110 H 587 166 l -13,-55 C 124,7427 70,7114 51,6965 18,6709 10,6583 3,6274 l -6,-291 420,-103 421,-103 11,-121 c 24,-239 65,-478 122,-719 17,-70 29,-133 26,-140 -3,-7 -161,-111 -352,-232 -191,-121 -349,-224 -351,-230 -15,-39 212,-616 351,-895 101,-201 299,-550 313,-550 6,0 106,32 516,166 231,75 292,92 301,82 7,-7 57,-74 112,-148 133,-178 204,-262 386,-459 84,-90 152,-168 152,-175 0,-6 -92,-174 -203,-374 l -204,-362 53,-48 c 257,-231 636,-510 959,-704 83,-50 348,-195 366,-200 6,-2 131,141 279,317 147,176 271,324 275,328 4,4 45,-9 91,-29 206,-89 477,-184 699,-244 l 135,-37 3,-431 2,-430 53,-12 c 185,-40 514,-87 782,-112 147,-13 768,-18 780,-6 4,4 20,60 36,125 126,515 178,725 182,729 2,2 72,13 156,24 217,29 399,64 609,116 101,25 185,44 187,42 1,-2 95,-169 209,-372 113,-203 208,-371 210,-374 7,-6 249,77 404,139 292,116 621,279 877,432 55,33 102,61 104,63 2,1 -196,214 -440,471 -244,257 -628,663 -853,901 -225,237 -412,432 -416,432 -4,0 -50,-17 -101,-39 -252,-104 -569,-186 -902,-232 -188,-26 -589,-36 -789,-20 -935,74 -1788,476 -2439,1148 -461,476 -785,1056 -949,1698 -84,329 -114,574 -114,940 -1,262 7,365 40,585 105,684 416,1363 861,1876 l 53,62 -628,610 c -345,336 -730,714 -857,841 -126,127 -233,231 -236,231 -4,0 -52,-51 -107,-112 z"
       id="path2"
       style="fill:none;stroke:url(#linearGradient4);stroke-width:300;stroke-linecap:round;stroke-linejoin:bevel;stroke-miterlimit:0;stroke-dasharray:75, 75;stroke-dashoffset:0;stroke-opacity:1;paint-order:markers stroke fill" />
  </g>
</svg>
