<svg width="24" height="28" viewBox="0 0 24 28" fill="none" xmlns="http://www.w3.org/2000/svg">
<g id="Icono libros">
<path id="Vector" d="M17.6333 7.80957H5.80951V12.5391H17.6333V7.80957Z" stroke="#FAF4ED" stroke-width="1.5" stroke-miterlimit="10"/>
<path id="Vector_2" d="M22.6352 26.9999H3.72952C3.26518 26.9924 2.81334 26.8483 2.43034 26.5857C2.04735 26.323 1.75017 25.9534 1.57588 25.523C1.40159 25.0925 1.3579 24.6203 1.45025 24.1652C1.54261 23.71 1.76694 23.2922 2.09524 22.9637C2.31386 22.743 2.57425 22.568 2.86122 22.449C3.14819 22.3299 3.45599 22.2692 3.76667 22.2704H22.6352" stroke="#FAF4ED" stroke-width="1.5" stroke-miterlimit="10"/>
<path id="Vector_3" d="M21.459 22.2706V27.0002" stroke="#FAF4ED" stroke-width="1.5" stroke-miterlimit="10"/>
<path id="Vector_4" d="M22.6352 1V22.2705H3.72951C3.10233 22.2705 2.50085 22.5196 2.05737 22.9631C1.61389 23.4066 1.36475 24.0081 1.36475 24.6352V3.36476C1.368 2.73859 1.61819 2.13899 2.06096 1.69622C2.50374 1.25344 3.10334 1.00325 3.72951 1H22.6352Z" stroke="#FAF4ED" stroke-width="1.5" stroke-miterlimit="10"/>
</g>
</svg>
