<svg width="30" height="30" viewBox="0 0 30 30" fill="none" xmlns="http://www.w3.org/2000/svg">
<g id="icono intercambio">
<path id="Vector" d="M7.25 23.3875C8.89995 23.3875 10.2375 22.0499 10.2375 20.4C10.2375 18.75 8.89995 17.4125 7.25 17.4125C5.60005 17.4125 4.2625 18.75 4.2625 20.4C4.2625 22.0499 5.60005 23.3875 7.25 23.3875Z" stroke="#FAF4ED" stroke-width="1.5" stroke-miterlimit="10"/>
<path id="Vector_2" d="M1.875 29.35V28.75C1.875 27.3245 2.44129 25.9573 3.4493 24.9493C4.45731 23.9413 5.82446 23.375 7.25 23.375C8.67337 23.3783 10.0373 23.9461 11.0426 24.9537C12.0479 25.9614 12.6125 27.3266 12.6125 28.75V29.35" stroke="#FAF4ED" stroke-width="1.5" stroke-miterlimit="10"/>
<path id="Vector_3" d="M22.75 7.87502C24.4 7.87502 25.7375 6.53748 25.7375 4.88752C25.7375 3.23757 24.4 1.90002 22.75 1.90002C21.1001 1.90002 19.7625 3.23757 19.7625 4.88752C19.7625 6.53748 21.1001 7.87502 22.75 7.87502Z" stroke="#FAF4ED" stroke-width="1.5" stroke-miterlimit="10"/>
<path id="Vector_4" d="M17.3875 13.8375V13.2375C17.3875 11.8153 17.9525 10.4513 18.9581 9.44565C19.9638 8.43999 21.3278 7.87501 22.75 7.87501C23.4553 7.87337 24.1539 8.01086 24.806 8.27962C25.458 8.54837 26.0507 8.94311 26.5499 9.44123C27.0492 9.93935 27.4453 10.5311 27.7156 11.1825C27.9859 11.8339 28.125 12.5322 28.125 13.2375V13.8375" stroke="#FAF4ED" stroke-width="1.5" stroke-miterlimit="10"/>
<path id="Vector_5" d="M19.625 19.65L23.35 15.9375L27.075 19.65" stroke="#FAF4ED" stroke-width="1.5" stroke-miterlimit="10"/>
<path id="Vector_6" d="M23.35 16.25V19.825C23.3435 21.7095 22.5946 23.5155 21.2655 24.8516C19.9365 26.1876 18.1344 26.9461 16.25 26.9625" stroke="#FAF4ED" stroke-width="1.5" stroke-miterlimit="10"/>
<path id="Vector_7" d="M10.375 10.4L6.65 14.125L2.925 10.4" stroke="#FAF4ED" stroke-width="1.5" stroke-miterlimit="10"/>
<path id="Vector_8" d="M6.64999 13.8375V10.25C6.64999 9.30998 6.83535 8.3792 7.19545 7.51091C7.55555 6.64262 8.08333 5.85385 8.7486 5.18975C9.41386 4.52565 10.2035 3.99924 11.0725 3.64066C11.9414 3.28207 12.8725 3.09834 13.8125 3.09999" stroke="#FAF4ED" stroke-width="1.5" stroke-miterlimit="10"/>
</g>
</svg>
