<svg width="30" height="30" viewBox="0 0 30 30" fill="none" xmlns="http://www.w3.org/2000/svg">
<g id="Icono mensajes">
<path id="Vector" d="M28.125 12.5625V25.6875L24.55 22.1H13.8125C12.7539 22.1028 11.7245 21.7529 10.887 21.1055C10.0494 20.4581 9.45144 19.5501 9.18749 18.525C9.0818 18.1169 9.03135 17.6965 9.03749 17.275V12.5625C9.03749 11.2961 9.54057 10.0815 10.4361 9.18604C11.3315 8.29055 12.5461 7.78748 13.8125 7.78748H23.35C24.6164 7.78748 25.8309 8.29055 26.7264 9.18604C27.6219 10.0815 28.125 11.2961 28.125 12.5625Z" stroke="#FFFAF3" stroke-width="1.5" stroke-miterlimit="10"/>
<path id="Vector_2" d="M20.9625 6.5875V7.8375H13.8125C12.5461 7.8375 11.3316 8.34058 10.4361 9.23607C9.54058 10.1316 9.0375 11.3461 9.0375 12.6125V16.1875H5.45L1.875 19.7125V6.5875C1.875 5.32109 2.37808 4.10655 3.27357 3.21107C4.16905 2.31558 5.38359 1.8125 6.65 1.8125H16.25C17.5055 1.82894 18.7041 2.33926 19.5861 3.23297C20.4681 4.12668 20.9626 5.33185 20.9625 6.5875Z" stroke="#FFFAF3" stroke-width="1.5" stroke-miterlimit="10"/>
</g>
</svg>
